PathFileType	4	(X/Y/Z)	Run_500 02
DataRate	CameraRate	NumFrames	NumMarkers	Units	OrigDataRate	OrigDataStartFrame	OrigNumFrames
100	100	7	42	mm	100	17	128
Frame#	Time	RASI			RPSI			RTH1			RTH2			RTH3			LTH1			LTH2			LTH3			RTB1			RTB2			RTB3			LTB1			LTB2			LTB3			RCAL			RTOE			RMT5			LCAL			LTOE			LMT5			LACR			RACR			CLAV			C7			RUA1			RUA2			RUA3			RLEL			LUA1			LUA2			LUA3			LLEL			LMEL			RFAsuperior			RFAradius			RFAulna			LFAsuperior			LFAradius			LPSI			RMEL			LFAulna			LASI			
		X1	Y1	Z1	X2	Y2	Z2	X3	Y3	Z3	X4	Y4	Z4	X5	Y5	Z5	X6	Y6	Z6	X7	Y7	Z7	X8	Y8	Z8	X9	Y9	Z9	X10	Y10	Z10	X11	Y11	Z11	X12	Y12	Z12	X13	Y13	Z13	X14	Y14	Z14	X15	Y15	Z15	X16	Y16	Z16	X17	Y17	Z17	X18	Y18	Z18	X19	Y19	Z19	X20	Y20	Z20	X21	Y21	Z21	X22	Y22	Z22	X23	Y23	Z23	X24	Y24	Z24	X25	Y25	Z25	X26	Y26	Z26	X27	Y27	Z27	X28	Y28	Z28	X29	Y29	Z29	X30	Y30	Z30	X31	Y31	Z31	X32	Y32	Z32	X33	Y33	Z33	X34	Y34	Z34	X35	Y35	Z35	X36	Y36	Z36	X37	Y37	Z37	X38	Y38	Z38	X39	Y39	Z39	X40	Y40	Z40	X41	Y41	Z41	X42	Y42	Z42	

1	0.55	1027.649729	1078.786861	-222.690483	871.3851550000001	1126.367556	-291.176627	974.057566	958.214852	-165.941621	982.02253	803.275566	-190.890559	1086.105547	681.332906	-198.861326	964.719508	938.57201	-519.773218	848.460447	814.193664	-478.042498	857.543138	670.0554509999999	-474.217132	1226.161846	468.097425	-271.086032	1158.908123	401.067068	-208.490253	1247.94151	281.407683	-291.171798	740.663531	479.960966	-412.268871	615.493032	540.9679170000001	-462.544876	521.739753	457.433205	-415.647992	1161.053865	137.98011	-297.127368	1399.330499	139.615105	-336.553712	1361.84176	95.44320999999999	-244.30376	384.337565	556.947587	-391.521222	362.023008	320.317674	-392.768285	322.919954	371.731489	-484.700877	994.779098	1573.180605	-480.70353	982.768731	1547.35067	-162.777263	1045.027463	1514.069732	-286.529842	930.419388	1585.28582	-326.859903	842.553736	1508.141561	-130.194013	854.165654	1447.129029	-77.08889000000001	751.3894320000001	1422.597657	-56.012471	691.286673	1381.62102	-36.676825	904.821108	1481.928931	-551.385485	938.318684	1408.065111	-577.603162	868.019333	1348.321276	-617.896782	855.260257	1280.561981	-639.93305	821.392924	1256.993297	-555.565986	757.608707	1299.45283	-9.619128	905.129477	1205.282336	-57.410395	860.071596	1168.193284	-20.469449	929.083893	1253.914843	-611.787861	1059.276569	1313.487533	-487.650564	880.554263	1133.050836	-405.42257	701.623927	1340.614343	-116.927599	1079.839581	1247.992333	-512.229663	1038.587449	1067.296521	-466.910207	
2	0.5600000000000001	1025.399013	1073.423289	-222.590609	870.030384	1121.127021	-291.959008	969.720014	952.182181	-165.274272	976.612645	796.889995	-192.830262	1079.734307	674.940635	-201.536475	965.749634	934.0610830000001	-520.149957	853.425476	806.143582	-476.11007	868.482214	662.553342	-477.296514	1214.824355	457.051876	-271.066096	1143.899051	390.856941	-211.913322	1232.982998	269.819987	-293.255981	754.147646	476.768465	-418.226478	632.79724	547.309123	-465.600965	534.182309	469.66583	-419.380175	1141.718586	131.714282	-305.887398	1380.565805	121.31592	-337.609752	1337.307963	74.83118	-249.360711	403.602672	577.526022	-390.047076	368.068335	342.810585	-401.265513	332.655051	400.250224	-491.168325	993.426167	1568.461872	-480.271446	984.039657	1540.98488	-162.365112	1044.720778	1508.791637	-286.817296	929.479293	1580.404824	-326.0164	844.429161	1499.85713	-126.324472	858.1960790000001	1438.55861	-73.89107199999999	756.866597	1411.333053	-49.807228	698.218131	1369.08852	-29.379691	900.5149249999999	1480.461049	-549.898268	931.963861	1406.608156	-578.421982	859.695923	1349.641872	-618.373024	845.255888	1282.14702	-640.999836	811.166929	1258.572109	-557.193725	767.219425	1288.692946	-4.644683	915.909905	1198.623613	-56.63359	872.638641	1160.561544	-18.529241	917.569942	1250.011189	-615.125557	1053.721092	1297.233774	-491.441934	879.4915549999999	1127.694398	-406.131316	707.203173	1328.685133	-110.10627	1069.232343	1231.460484	-518.396686	1037.300863	1061.8182	-467.919101	
3	0.57	1023.155608	1067.130519	-222.605324	868.253544	1114.88191	-292.318826	965.3777710000001	945.727061	-164.669008	971.013243	789.7272850000001	-196.467351	1072.673363	667.951669	-204.050715	966.822527	929.041018	-520.643356	859.04144	797.472808	-474.868866	880.642229	654.264527	-481.121564	1201.960394	444.147095	-271.232813	1126.978218	379.989232	-214.908027	1212.869974	256.284138	-295.577875	770.0243379999999	472.807362	-424.775649	652.469591	552.078745	-468.679762	550.057596	479.4447	-422.970317	1114.219553	124.713849	-312.600306	1353.080898	101.274697	-340.017745	1304.651373	57.539658	-253.145727	424.743211	594.0925	-388.359535	380.757893	361.453151	-408.670979	348.219958	423.610062	-496.53317	991.564195	1562.837659	-480.009627	985.353869	1533.561766	-161.762363	1044.484798	1502.767352	-287.064571	928.5685	1574.691485	-325.12834	846.759087	1489.879233	-121.661384	862.961767	1428.282219	-70.471492	763.277721	1398.259907	-43.119619	706.328592	1354.79499	-21.464572	895.606934	1477.708529	-548.225249	925.0753089999999	1403.977051	-579.1734760000001	850.978721	1349.746994	-618.54578	834.84764	1282.670131	-641.694537	801.43737	1258.903653	-558.687285	777.7845170000001	1275.965564	0.7990429999999999	927.532591	1190.403125	-55.750781	886.131993	1151.2538	-16.708638	905.262757	1244.893357	-618.506204	1046.977631	1278.716999	-496.046754	877.82913	1121.833114	-406.403452	713.687575	1315.142812	-102.618464	1057.244333	1213.178873	-525.605022	1035.449143	1055.628534	-468.574755	
4	0.58	1021.062924	1060.161214	-222.719078	866.131828	1107.581698	-292.455359	961.316944	938.2061660000001	-165.197354	965.3118459999999	781.856848	-199.769893	1065.672959	660.004588	-205.504183	967.900503	923.4839930000001	-521.1078220000001	865.853971	787.696583	-475.362516	894.232829	645.171935	-485.631964	1187.106167	429.882821	-273.456698	1108.514989	369.349819	-218.11717	1185.408053	241.789276	-300.415934	788.27359	468.062617	-431.495696	674.353982	554.732231	-471.820667	568.980538	486.396824	-426.288435	1076.070869	116.317526	-318.363623	1315.447222	85.229405	-344.03806	1263.912565	48.583532	-255.423222	447.545837	606.745613	-386.906881	398.817111	375.897923	-414.930782	368.512948	441.559424	-501.071238	989.232669	1556.407825	-479.836574	986.861394	1525.187329	-161.016042	1044.375749	1495.963284	-287.259644	927.569091	1568.019622	-324.197664	849.696593	1478.442666	-116.437304	868.600957	1416.439941	-66.97248	770.761133	1383.584777	-36.161919	715.774107	1338.869919	-13.278756	890.276135	1473.764327	-546.3321	917.74599	1400.252901	-579.806165	842.0244729999999	1348.626155	-618.410488	824.144404	1282.188291	-642.018401	791.985053	1258.184804	-559.890248	789.5005619999999	1261.512181	6.444625	940.011922	1180.61881	-54.986643	900.566558	1140.321372	-15.102034	892.275361	1238.643355	-621.825107	1038.737886	1258.14998	-501.296205	875.801604	1115.237963	-406.356297	721.330739	1300.032336	-94.778784	1043.664072	1193.408427	-533.557786	1033.329367	1048.829967	-468.829196	
5	0.59	1019.016426	1052.547108	-222.642188	863.699902	1099.557843	-292.519155	957.604502	929.435614	-167.083403	959.546037	773.722886	-201.360995	1059.16584	651.209413	-206.370441	968.8209000000001	917.277257	-521.188731	873.930981	776.4898439999999	-477.784822	909.389501	635.623396	-490.428289	1169.6825	415.400438	-279.10463	1088.246798	360.541544	-222.273388	1150.256251	228.258907	-308.438066	808.873982	462.736252	-437.854488	698.183512	554.862265	-475.307979	590.627963	490.410057	-429.284087	1028.140771	107.662061	-324.282482	1269.109318	76.664765	-348.621579	1216.711248	47.493863	-256.953397	472.090391	615.473206	-386.132088	420.979205	385.955759	-420.021607	392.499724	454.013182	-504.989444	986.510871	1549.242388	-479.753694	988.6928370000001	1516.020396	-160.248394	1044.49064	1488.371572	-287.453505	926.268838	1560.228228	-323.225999	853.232735	1465.834421	-110.872661	875.222416	1403.267745	-63.457935	779.462053	1367.401131	-29.166006	726.686056	1321.4521	-5.151025	884.799795	1468.738845	-544.149188	910.128303	1395.600607	-580.248883	833.004901	1346.351939	-617.874959	813.2158480000001	1280.830375	-641.999541	782.269825	1256.747649	-560.458538	802.531726	1245.609283	12.037072	953.334567	1169.239818	-54.506527	915.9438730000001	1127.818129	-13.77005	878.689	1231.406819	-625.052613	1028.838742	1235.844584	-507.130142	873.47218	1107.816351	-406.256059	730.366232	1283.351353	-86.93461499999999	1028.361094	1172.467415	-542.034493	1030.931678	1041.338619	-468.962054	
6	0.6	1016.656708	1044.297792	-221.983467	860.787181	1091.627614	-292.575223	953.9834520000001	920.238105	-169.48521	953.402864	766.061223	-201.848294	1052.415095	641.879314	-208.259343	969.533842	910.405171	-520.586385	883.108459	764.153872	-481.61614	926.147276	626.27887	-495.017574	1149.585659	402.227548	-287.433186	1065.810072	354.730116	-227.570521	1110.362096	217.75412	-317.572102	831.856182	457.261413	-443.312664	723.660724	552.655995	-479.429788	614.805585	491.748473	-432.153538	975.546812	101.41315	-330.014383	1218.508998	74.259258	-352.507704	1166.35104	49.749852	-258.729926	498.154991	620.3125199999999	-386.449769	446.400485	391.510176	-424.010395	419.310839	460.850089	-508.435746	983.449973	1541.561984	-479.839553	990.827535	1506.460642	-159.521565	1044.924964	1480.230434	-287.744914	924.666245	1551.556641	-322.170769	857.368206	1452.238425	-104.887227	882.912335	1388.956533	-60.02867	789.576022	1349.667321	-22.439413	739.079303	1302.790492	2.678085	879.4265810000001	1462.786223	-541.70845	902.444391	1390.210022	-580.431109	824.108102	1343.030352	-616.816735	802.104108	1278.76404	-641.740911	772.104794	1254.821659	-560.171388	816.857709	1228.417628	17.378937	967.471465	1156.276443	-54.396656	932.250695	1113.855228	-12.767487	864.506629	1223.370323	-628.204292	1017.312046	1212.290253	-513.561695	870.677631	1099.960329	-406.381798	740.888908	1265.258238	-79.35619699999999	1011.347616	1150.832018	-550.94439	1028.035005	1033.414969	-469.327667	
7	0.61	1013.602358	1035.702756	-220.601962	857.1920679999999	1084.743191	-292.732052	949.943882	912.012327	-171.288799	946.319779	759.5023619999999	-202.97349	1043.966901	632.385241	-212.250663	970.1034969999999	903.2857289999999	-519.4796219999999	893.223875	751.844715	-486.049262	944.436932	618.0263629999999	-499.03648	1127.348285	391.325745	-295.980876	1041.56889	351.491206	-233.227257	1069.841515	210.970453	-324.77408	857.278399	452.265793	-447.515246	750.5190689999999	548.914053	-484.191891	641.350205	490.849319	-435.132947	924.09955	99.344261	-334.329219	1168.303266	74.046476	-355.209254	1116.185296	51.285115	-260.97161	524.986999	621.408068	-388.1559	474.669432	392.478547	-427.014431	448.313526	461.910444	-511.56974	980.0962060000001	1533.831914	-480.174363	992.994723	1497.19018	-158.798082	1045.663368	1472.159401	-288.206193	923.154893	1542.939871	-320.990875	862.386353	1437.732108	-98.381519	891.6844599999999	1373.733985	-56.944095	801.318804	1330.401876	-16.322428	752.898235	1283.190427	10.064286	874.243343	1456.239457	-539.1490690000001	894.9220350000001	1384.351333	-580.304412	815.468895	1338.872503	-615.177806	790.9176220000001	1276.219659	-641.300743	761.902562	1252.497814	-559.068037	832.396606	1209.989736	22.299046	982.532597	1141.914407	-54.723949	949.563481	1098.711366	-12.196204	849.710864	1214.841941	-631.220807	1004.318075	1188.156101	-520.515997	867.291348	1092.569895	-406.88097	752.94403	1246.122983	-72.18379299999999	992.8181509999999	1129.265357	-560.328091	1024.520475	1025.896692	-470.101111	
